<?xml version="1.0" encoding="utf-8"?>
<!-- Generator: Adobe Illustrator 26.0.1, SVG Export Plug-In . SVG Version: 6.00 Build 0)  -->
<svg version="1.1" id="Layer_1" xmlns="http://www.w3.org/2000/svg" xmlns:xlink="http://www.w3.org/1999/xlink" x="0px" y="0px"
	 viewBox="0 0 2500 618.9" style="enable-background:new 0 0 2500 618.9;" xml:space="preserve">
<style type="text/css">
	.st0{fill:#061D2F;}
	.st1{clip-path:url(#SVGID_00000002351546706439251930000010426434467991349676_);}
</style>
<path id="SVGID_1_" class="st0" d="M177.7,480c-22.4,0-42.9-18.4-42.9-40.8c0-22.4,18.4-40.8,42.9-40.8s42.9,18.4,42.9,40.8
	C220.5,461.7,200.1,480,177.7,480L177.7,480z M704.1,257.6c-4.1-32.6-24.5-59.2-51-79.6l-10.2-8.2l-8.2,10.2
	c-16.3,18.4-22.4,51-20.4,75.5c2,18.4,8.2,36.7,18.4,51c-8.2,4.1-18.4,8.2-26.5,12.2c-18.4,6.1-36.7,8.2-55.1,8.2H22.6l-2,12.2
	c-4.1,38.8,2,79.6,18.4,116.3l8.2,14.3v2c49,81.6,136.7,118.4,232.6,118.4c183.7,0,334.7-79.6,406.1-251
	c46.9,2,93.9-10.2,116.3-55.1l6.1-10.2l-10.2-6.1C771.5,251.5,734.8,249.4,704.1,257.6L704.1,257.6z M440.9,225h-79.6v79.6h79.6V225
	z M440.9,125h-79.6v79.6h79.6V125z M440.9,22.9h-79.6v79.6h79.6C440.9,102.5,440.9,22.9,440.9,22.9z M538.9,225h-79.6v79.6h79.6V225
	z M243,225h-79.6v79.6H243L243,225L243,225z M343,225h-79.6v79.6H343V225z M145,225H65.4v79.6H145L145,225L145,225z M343,125h-79.6
	v79.6H343V125z M243,125h-79.6v79.6H243L243,125L243,125z"/>
<g>
	<defs>
		<path id="SVGID_00000077311090842301891300000017627277328318430877_" d="M177.7,480c-22.4,0-42.9-18.4-42.9-40.8
			c0-22.4,18.4-40.8,42.9-40.8s42.9,18.4,42.9,40.8C220.5,461.7,200.1,480,177.7,480L177.7,480z M704.1,257.6
			c-4.1-32.6-24.5-59.2-51-79.6l-10.2-8.2l-8.2,10.2c-16.3,18.4-22.4,51-20.4,75.5c2,18.4,8.2,36.7,18.4,51
			c-8.2,4.1-18.4,8.2-26.5,12.2c-18.4,6.1-36.7,8.2-55.1,8.2H22.6l-2,12.2c-4.1,38.8,2,79.6,18.4,116.3l8.2,14.3v2
			c49,81.6,136.7,118.4,232.6,118.4c183.7,0,334.7-79.6,406.1-251c46.9,2,93.9-10.2,116.3-55.1l6.1-10.2l-10.2-6.1
			C771.5,251.5,734.8,249.4,704.1,257.6L704.1,257.6z M440.9,225h-79.6v79.6h79.6V225z M440.9,125h-79.6v79.6h79.6V125z M440.9,22.9
			h-79.6v79.6h79.6C440.9,102.5,440.9,22.9,440.9,22.9z M538.9,225h-79.6v79.6h79.6V225z M243,225h-79.6v79.6H243L243,225L243,225z
			 M343,225h-79.6v79.6H343V225z M145,225H65.4v79.6H145L145,225L145,225z M343,125h-79.6v79.6H343V125z M243,125h-79.6v79.6H243
			L243,125L243,125z"/>
	</defs>
	<clipPath id="SVGID_00000165225964830707072910000007956036643946076594_">
		<use xlink:href="#SVGID_00000077311090842301891300000017627277328318430877_"  style="overflow:visible;"/>
	</clipPath>
	<g style="clip-path:url(#SVGID_00000165225964830707072910000007956036643946076594_);">
		<path id="SVGID_3_" d="M-1283.2-1043h26013.3v3089.4H-1283.2V-1043z"/>
	</g>
</g>
<path id="docker_2_" d="M2079.5,431.1c34.7-30.6,69.4-59.2,104.1-89.8c12.2-10.2,24.5-20.4,36.7-32.6
	c-10.2-12.2-24.5-20.4-38.8-26.5c-26.5-10.2-53.1-6.1-79.6,8.2c-32.6,18.4-46.9,49-44.9,85.7c0,14.3,4.1,28.6,12.2,40.8
	C2075.4,422.9,2077.5,427,2079.5,431.1 M2120.3,459.6c16.3,6.1,36.7,6.1,55.1,2c8.2-4.1,32.6-14.3,40.8-12.2h4.1
	c6.1,2,10.2,6.1,12.2,12.2c6.1,12.2,4.1,24.5-8.2,30.6l-4.1,2c-44.9,26.5-91.8,22.4-136.7-2c-20.4-12.2-36.7-28.6-49-49l-2-4.1
	c-28.6-49-24.5-102,8.2-149c10.2-16.3,26.5-28.6,42.9-38.8l6.1-4.1c42.9-24.5,87.7-22.4,130.6-2c22.4,12.2,42.9,28.6,55.1,51l2,4.1
	c10.2,16.3-2,30.6-16.3,40.8l-42.9,36.7C2181.5,406.6,2150.9,433.1,2120.3,459.6L2120.3,459.6z M2452.9,235.2h4.1
	c14.3,0,24.5,10.2,24.5,24.5c0,20.4-18.4,24.5-34.7,24.5c-20.4,0-40.8,12.2-55.1,26.5c-18.4,18.4-26.5,40.8-26.5,65.3v114.3
	c0,12.2-8.2,24.5-22.4,24.5h-4.1c-14.3,0-22.4-10.2-22.4-24.5V369.8c0-46.9,22.4-83.7,59.2-110.2
	C2401.9,243.3,2426.4,235.2,2452.9,235.2L2452.9,235.2z M1869.3,314.7l55.1-55.1c6.1-4.1,24.5-26.5,32.6-26.5h8.2
	c10.2,2,18.4,8.2,18.4,20.4v4.1c0,8.2-10.2,16.3-14.3,22.4c-10.2,12.2-22.4,22.4-32.6,34.7l-57.1,57.1l73.5,73.5l20.4,20.4l8.2,8.2
	c2,4.1,4.1,6.1,4.1,10.2v6.1c-2,10.2-10.2,18.4-20.4,18.4h-4.1c-8.2,0-16.3-8.2-22.4-14.3c-10.2-10.2-22.4-20.4-32.6-32.6
	l-36.7-34.7v57.1c0,12.2-8.2,24.5-22.4,24.5h-4.1c-14.3,0-22.4-10.2-22.4-24.5V169.9c0-12.2,8.2-22.4,22.4-22.4h4.1
	c14.3,0,22.4,10.2,22.4,22.4V314.7z M1718.3,284.1c-6.1-4.1-20.4-4.1-28.6-4.1c-38.8-2-67.3,20.4-83.7,55.1
	c-6.1,12.2-8.2,24.5-8.2,38.8c0,40.8,20.4,69.4,57.1,85.7c12.2,6.1,30.6,8.2,44.9,8.2c12.2,0,30.6-8.2,40.8-12.2h10.2
	c10.2,2,18.4,8.2,18.4,20.4v4.1c0,28.6-53.1,34.7-71.4,36.7c-69.4,4.1-122.4-34.7-142.8-100c-4.1-12.2-4.1-22.4-4.1-34.7v-10.2
	c0-51,24.5-91.8,69.4-116.3c20.4-12.2,42.9-18.4,67.3-18.4h10.2c24.5,0,49,6.1,69.4,20.4l2,2l2,2c2,4.1,4.1,8.2,4.1,12.2v4.1
	c0,12.2-8.2,18.4-20.4,20.4h-2C1738.7,294.3,1722.4,286.2,1718.3,284.1L1718.3,284.1z M1289.8,371.9c0,34.7,18.4,61.2,46.9,79.6
	c14.3,8.2,30.6,12.2,46.9,12.2c34.7,0,61.2-18.4,79.6-46.9c8.2-14.3,12.2-30.6,12.2-46.9c0-32.6-16.3-59.2-42.9-77.5
	c-14.3-10.2-32.6-14.3-49-14.3c-38.8,0-67.3,20.4-83.7,55.1C1289.8,347.4,1289.8,359.6,1289.8,371.9L1289.8,371.9z M1375.5,233.1
	h6.1c55.1,0,95.9,26.5,122.4,73.5c10.2,18.4,16.3,38.8,16.3,61.2V378c0,51-24.5,91.8-69.4,116.3c-20.4,12.2-42.9,18.4-67.3,18.4
	h-10.2c-51,0-91.8-24.5-116.3-69.4c-12.2-20.4-18.4-42.9-18.4-67.3v-10.2c0-51,24.5-91.8,69.4-116.3
	C1330.6,239.2,1351,233.1,1375.5,233.1L1375.5,233.1z M979.6,371.9c0,36.7,18.4,65.3,51,81.6c12.2,6.1,26.5,10.2,42.9,10.2
	c36.7,0,63.3-16.3,81.6-46.9c8.2-14.3,12.2-30.6,12.2-46.9c0-32.6-14.3-57.1-40.8-75.5c-16.3-10.2-32.6-16.3-53.1-16.3
	c-38.8,0-67.3,20.4-83.7,55.1C983.7,347.4,979.6,359.6,979.6,371.9L979.6,371.9z M1167.4,267.8v-100c0-12.2,8.2-24.5,22.4-24.5h4.1
	c14.3,0,22.4,10.2,22.4,24.5V378c0,51-24.5,91.8-69.4,116.3c-20.4,12.2-42.9,18.4-67.3,18.4h-10.2c-51,0-91.8-24.5-116.3-69.4
	c-12.2-20.4-18.4-42.9-18.4-67.3v-10.2c0-51,24.5-91.8,69.4-116.3c20.4-12.2,42.9-18.4,67.3-18.4h10.2
	C1112.3,233.1,1142.9,245.4,1167.4,267.8L1167.4,267.8z"/>
</svg>
