<?xml version="1.0" encoding="utf-8"?>
<!-- Generator: Adobe Illustrator 25.2.2, SVG Export Plug-In . SVG Version: 6.00 Build 0)  -->
<svg version="1.1" id="Layer_1" xmlns="http://www.w3.org/2000/svg" xmlns:xlink="http://www.w3.org/1999/xlink" x="0px" y="0px"
	 viewBox="0 0 724 366" style="enable-background:new 0 0 724 366;" xml:space="preserve">
<g transform="translate(0.000000,366.000000) scale(0.100000,-0.100000)">
	<path d="M334,3375c-16-11-17-18-6-61c6-27,94-384,195-794c102-410,271-1093,376-1519s196-780,202-788c6-7,18-13,25-13
		c15,0,2338,2231,2347,2253c3,8,2,20-3,27c-6,9-2067,610-3052,889C363,3385,348,3386,334,3375z M1042,3113c14-6-31-54-223-238
		c-132-126-243-229-247-228c-6,2-161,613-162,639C410,3296,989,3137,1042,3113z M1503,2983c166-47,306-89,310-93s-98-109-228-235
		c-129-125-237-226-240-224c-11,11-161,639-153,639C1198,3070,1338,3031,1503,2983z M1193,2734c43-174,76-319,74-321
		c-5-4-603,165-624,176c-8,4,74,90,224,234c131,125,240,227,243,227S1151,2908,1193,2734z M2260,2765c162-47,303-88,313-93
		c15-6-24-48-218-235c-130-125-240-227-244-227c-3,0-39,134-79,298c-40,163-75,307-78,320c-4,12-2,22,3,22
		C1961,2850,2098,2812,2260,2765z M1885,2808c3-13,38-157,79-320c40-164,71-298,68-298c-5,0-394,111-567,162l-70,20l235,229
		c129,125,238,228,242,229C1876,2830,1882,2820,1885,2808z M3042,2540c172-50,317-91,321-93c8-2-472-467-483-467
		c-5,0-160,622-160,643c0,4,2,7,4,7C2727,2630,2870,2589,3042,2540z M2724,2294c43-173,76-317,73-320c-6-6-601,161-622,174
		c-7,4,82,98,224,234c130,125,238,228,241,228S2681,2468,2724,2294z M929,2430c172-49,315-91,317-93s-104-109-237-237
		c-132-128-244-229-249-224c-4,5-40,142-79,304c-40,162-74,305-78,318c-3,12-1,22,3,22C611,2520,756,2480,929,2430z M1699,2210
		c172-49,315-91,316-92c2-2-106-107-238-235l-242-232l-77,307c-69,274-84,342-75,342C1384,2300,1526,2260,1699,2210z M1387,1953
		c44-181,80-329,79-330c-2-3-640,180-646,185c-5,4,470,471,481,472C1304,2280,1342,2133,1387,1953z M2477,1984c172-49,312-92,310-96
		c-1-4-110-111-242-237c-193-185-241-227-247-213c-7,15-158,628-158,639c0,3,6,3,13,1C2159,2075,2306,2033,2477,1984z M2151,1730
		c43-178,78-324,76-326c-6-6-638,182-639,190c-1,10,473,468,479,462C2069,2054,2107,1907,2151,1730z M1123,1645
		c169-48,306-91,305-95c-2-4-109-109-238-233c-189-182-236-223-242-209c-5,9-40,148-78,307c-39,160-73,299-76,309c-5,13-2,18,7,14
		C809,1735,954,1693,1123,1645z M1649,866c-4-4-630,171-636,178c-2,1,106,107,240,235l242,232l79-321C1618,1014,1651,868,1649,866z
		 M1896,1422c166-48,302-90,303-95c2-9-454-449-466-448c-6,0-162,595-163,624C1570,1516,1591,1511,1896,1422z M1637,787
		c2-2-107-111-242-242s-247-236-250-234c-3,4-165,654-165,664C980,978,1632,791,1637,787z"/>
	<path d="M3688,1589c-17-9-18-37-18-357c0-366,1-372,45-372c41,0,45,16,45,184v159l40,37c73,67,157,75,205,18c25-29,25-32,25-203
		c0-189,3-199,57-193l28,3l2,195c3,186,2,197-20,234c-31,54-67,78-126,84c-73,7-113-4-165-44l-46-35v140c0,128-2,141-19,151
		C3717,1602,3710,1602,3688,1589z"/>
	<path d="M3301,1396c-84-84-88-106-21-106h40v-175c0-185,6-213,47-240c34-23,111-29,158-13c35,11,40,17,40,43v30h-61
		c-95,1-94,0-94,191v164h64c70,0,90,12,84,52c-3,21-8,23-75,26l-73,3v49C3410,1490,3390,1486,3301,1396z"/>
	<path d="M4298,1369c-16-9-18-32-18-247c0-250,2-262,45-262c41,0,45,16,45,186v162l39,35c25,22,54,38,78,42c73,12,82,15,88,35
		c24,76-95,82-172,7l-33-31v32C4370,1371,4335,1391,4298,1369z"/>
	<path d="M4750,1364c-45-20-86-59-113-109c-18-33-22-57-22-140c0-85,3-106,23-143c60-112,227-153,370-92c57,24,74,52,48,78
		c-14,14-21,15-63,2c-68-19-140-24-183-11c-44,13-87,56-99,99l-10,32h173c210,0,211,0,204,88c-9,128-102,212-232,212
		C4812,1379,4769,1372,4750,1364z M4945,1259c19-19,37-49,41-66l7-33h-148h-147l7,28c18,74,75,115,153,109
		C4903,1294,4917,1288,4945,1259z"/>
	<path d="M5320,1364c-45-20-86-59-113-109c-18-33-22-57-22-140c0-85,3-106,23-143c60-112,227-153,370-92c57,24,74,52,48,78
		c-14,14-21,15-63,2c-68-19-140-24-183-11c-44,13-87,56-99,99l-10,32h173c210,0,211,0,204,88c-9,128-102,212-232,212
		C5382,1379,5339,1372,5320,1364z M5515,1259c19-19,37-49,41-66l7-33h-148h-147l7,28c18,74,75,115,153,109
		C5473,1294,5487,1288,5515,1259z"/>
	<path d="M6047,1362c-15-16-17-54-17-331V720l-26-10c-14-6-30-7-35-4c-16,9-56-4-63-22c-11-29,12-52,58-59c56-9,109,8,136,42
		c19,25,20,40,20,359s-1,334-19,344C6074,1384,6066,1383,6047,1362z"/>
	<path d="M6341,1358c-72-39-102-128-67-197c21-40,48-55,163-90c55-17,106-38,113-46c18-21-2-62-36-75c-37-15-115-12-164,5
		c-23,8-51,15-61,15c-25,0-43-35-29-59c27-52,240-77,309-36c54,32,76,69,75,126c-1,87-39,118-197,164c-93,27-106,39-91,84
		c15,42,71,56,167,41c85-14,111-5,105,34c-5,32-54,50-153,54C6395,1381,6380,1379,6341,1358z"/>
</g>
<path d="M606,203.1c-3.4,0.7-5.6,4.3-4.6,7.7c0.5,1.7,2.1,3.5,3.7,4c4.7,1.6,9.1-2.1,8.2-7c-0.1-0.7-0.4-1.5-0.6-1.8
	C610.8,203.5,608.7,202.6,606,203.1z"/>
<path d="M582.9,267.9c-3.4,0.7-5.6,4.3-4.6,7.7c0.5,1.7,2.1,3.5,3.7,4c4.7,1.6,9.1-2.1,8.2-7c-0.1-0.7-0.4-1.5-0.6-1.8
	C587.7,268.3,585.6,267.4,582.9,267.9z"/>
</svg>
